<?xml version="1.0" encoding="utf-8"?>
<svg xmlns="http://www.w3.org/2000/svg" xmlns:xlink="http://www.w3.org/1999/xlink" style="margin: auto; background: none; display: block; shape-rendering: auto;" width="147px" height="147px" viewBox="0 0 100 100" preserveAspectRatio="xMidYMid">
<g transform="rotate(0 50 50)">
  <rect x="49.5" y="1.5" rx="0.5" ry="3.23" width="1" height="19" fill="#000000">
    <animate attributeName="opacity" values="1;0" keyTimes="0;1" dur="1.923076923076923s" begin="-1.8429487179487178s" repeatCount="indefinite"></animate>
  </rect>
</g><g transform="rotate(15 50 50)">
  <rect x="49.5" y="1.5" rx="0.5" ry="3.23" width="1" height="19" fill="#000000">
    <animate attributeName="opacity" values="1;0" keyTimes="0;1" dur="1.923076923076923s" begin="-1.7628205128205128s" repeatCount="indefinite"></animate>
  </rect>
</g><g transform="rotate(30 50 50)">
  <rect x="49.5" y="1.5" rx="0.5" ry="3.23" width="1" height="19" fill="#000000">
    <animate attributeName="opacity" values="1;0" keyTimes="0;1" dur="1.923076923076923s" begin="-1.6826923076923077s" repeatCount="indefinite"></animate>
  </rect>
</g><g transform="rotate(45 50 50)">
  <rect x="49.5" y="1.5" rx="0.5" ry="3.23" width="1" height="19" fill="#000000">
    <animate attributeName="opacity" values="1;0" keyTimes="0;1" dur="1.923076923076923s" begin="-1.6025641025641024s" repeatCount="indefinite"></animate>
  </rect>
</g><g transform="rotate(60 50 50)">
  <rect x="49.5" y="1.5" rx="0.5" ry="3.23" width="1" height="19" fill="#000000">
    <animate attributeName="opacity" values="1;0" keyTimes="0;1" dur="1.923076923076923s" begin="-1.5224358974358974s" repeatCount="indefinite"></animate>
  </rect>
</g><g transform="rotate(75 50 50)">
  <rect x="49.5" y="1.5" rx="0.5" ry="3.23" width="1" height="19" fill="#000000">
    <animate attributeName="opacity" values="1;0" keyTimes="0;1" dur="1.923076923076923s" begin="-1.4423076923076923s" repeatCount="indefinite"></animate>
  </rect>
</g><g transform="rotate(90 50 50)">
  <rect x="49.5" y="1.5" rx="0.5" ry="3.23" width="1" height="19" fill="#000000">
    <animate attributeName="opacity" values="1;0" keyTimes="0;1" dur="1.923076923076923s" begin="-1.3621794871794872s" repeatCount="indefinite"></animate>
  </rect>
</g><g transform="rotate(105 50 50)">
  <rect x="49.5" y="1.5" rx="0.5" ry="3.23" width="1" height="19" fill="#000000">
    <animate attributeName="opacity" values="1;0" keyTimes="0;1" dur="1.923076923076923s" begin="-1.282051282051282s" repeatCount="indefinite"></animate>
  </rect>
</g><g transform="rotate(120 50 50)">
  <rect x="49.5" y="1.5" rx="0.5" ry="3.23" width="1" height="19" fill="#000000">
    <animate attributeName="opacity" values="1;0" keyTimes="0;1" dur="1.923076923076923s" begin="-1.2019230769230769s" repeatCount="indefinite"></animate>
  </rect>
</g><g transform="rotate(135 50 50)">
  <rect x="49.5" y="1.5" rx="0.5" ry="3.23" width="1" height="19" fill="#000000">
    <animate attributeName="opacity" values="1;0" keyTimes="0;1" dur="1.923076923076923s" begin="-1.1217948717948718s" repeatCount="indefinite"></animate>
  </rect>
</g><g transform="rotate(150 50 50)">
  <rect x="49.5" y="1.5" rx="0.5" ry="3.23" width="1" height="19" fill="#000000">
    <animate attributeName="opacity" values="1;0" keyTimes="0;1" dur="1.923076923076923s" begin="-1.0416666666666667s" repeatCount="indefinite"></animate>
  </rect>
</g><g transform="rotate(165 50 50)">
  <rect x="49.5" y="1.5" rx="0.5" ry="3.23" width="1" height="19" fill="#000000">
    <animate attributeName="opacity" values="1;0" keyTimes="0;1" dur="1.923076923076923s" begin="-0.9615384615384615s" repeatCount="indefinite"></animate>
  </rect>
</g><g transform="rotate(180 50 50)">
  <rect x="49.5" y="1.5" rx="0.5" ry="3.23" width="1" height="19" fill="#000000">
    <animate attributeName="opacity" values="1;0" keyTimes="0;1" dur="1.923076923076923s" begin="-0.8814102564102564s" repeatCount="indefinite"></animate>
  </rect>
</g><g transform="rotate(195 50 50)">
  <rect x="49.5" y="1.5" rx="0.5" ry="3.23" width="1" height="19" fill="#000000">
    <animate attributeName="opacity" values="1;0" keyTimes="0;1" dur="1.923076923076923s" begin="-0.8012820512820512s" repeatCount="indefinite"></animate>
  </rect>
</g><g transform="rotate(210 50 50)">
  <rect x="49.5" y="1.5" rx="0.5" ry="3.23" width="1" height="19" fill="#000000">
    <animate attributeName="opacity" values="1;0" keyTimes="0;1" dur="1.923076923076923s" begin="-0.7211538461538461s" repeatCount="indefinite"></animate>
  </rect>
</g><g transform="rotate(225 50 50)">
  <rect x="49.5" y="1.5" rx="0.5" ry="3.23" width="1" height="19" fill="#000000">
    <animate attributeName="opacity" values="1;0" keyTimes="0;1" dur="1.923076923076923s" begin="-0.641025641025641s" repeatCount="indefinite"></animate>
  </rect>
</g><g transform="rotate(240 50 50)">
  <rect x="49.5" y="1.5" rx="0.5" ry="3.23" width="1" height="19" fill="#000000">
    <animate attributeName="opacity" values="1;0" keyTimes="0;1" dur="1.923076923076923s" begin="-0.5608974358974359s" repeatCount="indefinite"></animate>
  </rect>
</g><g transform="rotate(255 50 50)">
  <rect x="49.5" y="1.5" rx="0.5" ry="3.23" width="1" height="19" fill="#000000">
    <animate attributeName="opacity" values="1;0" keyTimes="0;1" dur="1.923076923076923s" begin="-0.4807692307692307s" repeatCount="indefinite"></animate>
  </rect>
</g><g transform="rotate(270 50 50)">
  <rect x="49.5" y="1.5" rx="0.5" ry="3.23" width="1" height="19" fill="#000000">
    <animate attributeName="opacity" values="1;0" keyTimes="0;1" dur="1.923076923076923s" begin="-0.4006410256410256s" repeatCount="indefinite"></animate>
  </rect>
</g><g transform="rotate(285 50 50)">
  <rect x="49.5" y="1.5" rx="0.5" ry="3.23" width="1" height="19" fill="#000000">
    <animate attributeName="opacity" values="1;0" keyTimes="0;1" dur="1.923076923076923s" begin="-0.3205128205128205s" repeatCount="indefinite"></animate>
  </rect>
</g><g transform="rotate(300 50 50)">
  <rect x="49.5" y="1.5" rx="0.5" ry="3.23" width="1" height="19" fill="#000000">
    <animate attributeName="opacity" values="1;0" keyTimes="0;1" dur="1.923076923076923s" begin="-0.24038461538461536s" repeatCount="indefinite"></animate>
  </rect>
</g><g transform="rotate(315 50 50)">
  <rect x="49.5" y="1.5" rx="0.5" ry="3.23" width="1" height="19" fill="#000000">
    <animate attributeName="opacity" values="1;0" keyTimes="0;1" dur="1.923076923076923s" begin="-0.16025641025641024s" repeatCount="indefinite"></animate>
  </rect>
</g><g transform="rotate(330 50 50)">
  <rect x="49.5" y="1.5" rx="0.5" ry="3.23" width="1" height="19" fill="#000000">
    <animate attributeName="opacity" values="1;0" keyTimes="0;1" dur="1.923076923076923s" begin="-0.08012820512820512s" repeatCount="indefinite"></animate>
  </rect>
</g><g transform="rotate(345 50 50)">
  <rect x="49.5" y="1.5" rx="0.5" ry="3.23" width="1" height="19" fill="#000000">
    <animate attributeName="opacity" values="1;0" keyTimes="0;1" dur="1.923076923076923s" begin="0s" repeatCount="indefinite"></animate>
  </rect>
</g>
<!-- [ldio] generated by https://loading.io/ --></svg>